<svg width="40" height="40" viewBox="0 0 40 40" fill="none" xmlns="http://www.w3.org/2000/svg">
<path fill-rule="evenodd" clip-rule="evenodd" d="M16.0289 29.5525C16.0289 29.126 16.3746 28.7803 16.8011 28.7803H22.7493C23.1758 28.7803 23.5215 29.126 23.5215 29.5525C23.5215 29.979 23.1758 30.3247 22.7493 30.3247H16.8011C16.3746 30.3247 16.0289 29.979 16.0289 29.5525Z" fill="#707070"/>
<path d="M18.5515 24.1766C18.5515 24.9017 17.9637 25.4894 17.2387 25.4894C16.5137 25.4894 15.9259 24.9017 15.9259 24.1766C15.9259 23.4516 16.5137 22.8639 17.2387 22.8639C17.9637 22.8639 18.5515 23.4516 18.5515 24.1766Z" fill="#707070"/>
<path fill-rule="evenodd" clip-rule="evenodd" d="M17.2387 25.3979C17.9132 25.3979 18.4599 24.8511 18.4599 24.1766C18.4599 23.5022 17.9132 22.9554 17.2387 22.9554C16.5642 22.9554 16.0174 23.5022 16.0174 24.1766C16.0174 24.8511 16.5642 25.3979 17.2387 25.3979ZM17.2387 25.4894C17.9637 25.4894 18.5515 24.9017 18.5515 24.1766C18.5515 23.4516 17.9637 22.8639 17.2387 22.8639C16.5137 22.8639 15.9259 23.4516 15.9259 24.1766C15.9259 24.9017 16.5137 25.4894 17.2387 25.4894Z" fill="#707070"/>
<path d="M23.512 24.3057C23.512 25.0307 22.9242 25.6185 22.1992 25.6185C21.4742 25.6185 20.8864 25.0307 20.8864 24.3057C20.8864 23.5807 21.4742 22.9929 22.1992 22.9929C22.9242 22.9929 23.512 23.5807 23.512 24.3057Z" fill="#707070"/>
<path fill-rule="evenodd" clip-rule="evenodd" d="M22.1992 25.4991C22.8583 25.4991 23.3926 24.9648 23.3926 24.3057C23.3926 23.6466 22.8583 23.1123 22.1992 23.1123C21.5401 23.1123 21.0058 23.6466 21.0058 24.3057C21.0058 24.9648 21.5401 25.4991 22.1992 25.4991ZM22.1992 25.6185C22.9242 25.6185 23.512 25.0307 23.512 24.3057C23.512 23.5807 22.9242 22.9929 22.1992 22.9929C21.4742 22.9929 20.8864 23.5807 20.8864 24.3057C20.8864 25.0307 21.4742 25.6185 22.1992 25.6185Z" fill="#707070"/>
<path fill-rule="evenodd" clip-rule="evenodd" d="M20.1005 18.4196C20.184 17.8572 20.7077 17.4689 21.2702 17.5524C25.7374 18.2158 29.1644 22.065 29.1644 26.7165C29.1644 31.8335 25.016 35.9815 19.8988 35.9815C14.7816 35.9815 10.6332 31.8335 10.6332 26.7165C10.6332 25.4121 10.9034 24.1681 11.3919 23.0395C11.6177 22.5177 12.2239 22.2777 12.7457 22.5036C13.2676 22.7294 13.5076 23.3356 13.2817 23.8575C12.9029 24.7326 12.6925 25.6986 12.6925 26.7165C12.6925 30.696 15.9188 33.9222 19.8988 33.9222C23.8789 33.9222 27.1052 30.696 27.1052 26.7165C27.1052 23.1006 24.4406 20.105 20.9677 19.5893C20.4053 19.5058 20.017 18.9821 20.1005 18.4196Z" fill="#707070"/>
<path d="M10.7432 10.6036C10.7432 11.3287 10.1555 11.9164 9.43044 11.9164C8.70542 11.9164 8.11767 11.3287 8.11767 10.6036C8.11767 9.87862 8.70542 9.29088 9.43044 9.29088C10.1555 9.29088 10.7432 9.87862 10.7432 10.6036Z" fill="#707070"/>
<path fill-rule="evenodd" clip-rule="evenodd" d="M9.43044 11.8249C10.1049 11.8249 10.6517 11.2781 10.6517 10.6036C10.6517 9.92916 10.1049 9.38239 9.43044 9.38239C8.75596 9.38239 8.20918 9.92916 8.20918 10.6036C8.20918 11.2781 8.75596 11.8249 9.43044 11.8249ZM9.43044 11.9164C10.1555 11.9164 10.7432 11.3287 10.7432 10.6036C10.7432 9.87862 10.1555 9.29088 9.43044 9.29088C8.70542 9.29088 8.11767 9.87862 8.11767 10.6036C8.11767 11.3287 8.70542 11.9164 9.43044 11.9164Z" fill="#707070"/>
<path d="M15.7037 10.7336C15.7037 11.4586 15.116 12.0463 14.3909 12.0463C13.6659 12.0463 13.0782 11.4586 13.0782 10.7336C13.0782 10.0085 13.6659 9.42079 14.3909 9.42079C15.116 9.42079 15.7037 10.0085 15.7037 10.7336Z" fill="#707070"/>
<path fill-rule="evenodd" clip-rule="evenodd" d="M14.3909 11.927C15.05 11.927 15.5844 11.3927 15.5844 10.7336C15.5844 10.0744 15.05 9.54013 14.3909 9.54013C13.7318 9.54013 13.1975 10.0744 13.1975 10.7336C13.1975 11.3927 13.7318 11.927 14.3909 11.927ZM14.3909 12.0463C15.116 12.0463 15.7037 11.4586 15.7037 10.7336C15.7037 10.0085 15.116 9.42079 14.3909 9.42079C13.6659 9.42079 13.0782 10.0085 13.0782 10.7336C13.0782 11.4586 13.6659 12.0463 14.3909 12.0463Z" fill="#707070"/>
<path fill-rule="evenodd" clip-rule="evenodd" d="M15.5569 14.8793C15.87 15.1689 15.8891 15.6575 15.5995 15.9706C13.5727 18.1616 10.3139 17.9128 8.43917 15.9845C8.14188 15.6787 8.14877 15.1898 8.45455 14.8925C8.76034 14.5952 9.24924 14.6021 9.54653 14.9079C10.8747 16.274 13.1065 16.3912 14.4657 14.9218C14.7553 14.6088 15.2439 14.5897 15.5569 14.8793Z" fill="#707070"/>
<path fill-rule="evenodd" clip-rule="evenodd" d="M12.0716 19.2898C15.7104 19.2898 18.6602 16.34 18.6602 12.7013C18.6602 9.06251 15.7104 6.11272 12.0716 6.11272C8.43287 6.11272 5.48308 9.06251 5.48308 12.7013C5.48308 16.34 8.43287 19.2898 12.0716 19.2898ZM12.0716 21.3491C16.8477 21.3491 20.7194 17.4773 20.7194 12.7013C20.7194 7.92521 16.8477 4.05347 12.0716 4.05347C7.29558 4.05347 3.42383 7.92521 3.42383 12.7013C3.42383 17.4773 7.29558 21.3491 12.0716 21.3491Z" fill="#707070"/>
<path d="M27.0554 10.6028C27.0554 11.3278 26.4677 11.9156 25.7426 11.9156C25.0176 11.9156 24.4299 11.3278 24.4299 10.6028C24.4299 9.87777 25.0176 9.29002 25.7426 9.29002C26.4677 9.29002 27.0554 9.87777 27.0554 10.6028Z" fill="#707070"/>
<path fill-rule="evenodd" clip-rule="evenodd" d="M25.7426 11.824C26.4171 11.824 26.9639 11.2773 26.9639 10.6028C26.9639 9.92831 26.4171 9.38153 25.7426 9.38153C25.0682 9.38153 24.5214 9.92831 24.5214 10.6028C24.5214 11.2773 25.0682 11.824 25.7426 11.824ZM25.7426 11.9156C26.4677 11.9156 27.0554 11.3278 27.0554 10.6028C27.0554 9.87777 26.4677 9.29002 25.7426 9.29002C25.0176 9.29002 24.4299 9.87777 24.4299 10.6028C24.4299 11.3278 25.0176 11.9156 25.7426 11.9156Z" fill="#707070"/>
<path d="M32.0159 10.7327C32.0159 11.4577 31.4282 12.0455 30.7031 12.0455C29.9781 12.0455 29.3904 11.4577 29.3904 10.7327C29.3904 10.0077 29.9781 9.41993 30.7031 9.41993C31.4282 9.41993 32.0159 10.0077 32.0159 10.7327Z" fill="#707070"/>
<path fill-rule="evenodd" clip-rule="evenodd" d="M30.7031 11.9261C31.3623 11.9261 31.8966 11.3918 31.8966 10.7327C31.8966 10.0736 31.3623 9.53928 30.7031 9.53928C30.044 9.53928 29.5097 10.0736 29.5097 10.7327C29.5097 11.3918 30.044 11.9261 30.7031 11.9261ZM30.7031 12.0455C31.4282 12.0455 32.0159 11.4577 32.0159 10.7327C32.0159 10.0077 31.4282 9.41993 30.7031 9.41993C29.9781 9.41993 29.3904 10.0077 29.3904 10.7327C29.3904 11.4577 29.9781 12.0455 30.7031 12.0455Z" fill="#707070"/>
<path fill-rule="evenodd" clip-rule="evenodd" d="M31.8692 16.8507C32.1822 16.5611 32.2013 16.0725 31.9117 15.7594C29.885 13.5684 26.6261 13.8172 24.7514 15.7455C24.4541 16.0513 24.461 16.5402 24.7668 16.8375C25.0726 17.1348 25.5614 17.1279 25.8587 16.8221C27.1869 15.456 29.4187 15.3388 30.7779 16.8081C31.0675 17.1212 31.5561 17.1403 31.8692 16.8507Z" fill="#707070"/>
<path fill-rule="evenodd" clip-rule="evenodd" d="M20.831 8.69543C20.3656 8.36858 20.2534 7.72639 20.5802 7.26107C23.1761 3.56548 28.1533 2.22806 32.311 4.31362C36.8849 6.60788 38.7326 12.1758 36.4382 16.7498C35.0217 19.5737 32.3569 21.3579 29.4531 21.7707C28.8902 21.8508 28.3689 21.4593 28.2888 20.8963C28.2088 20.3333 28.6003 19.812 29.1633 19.732C31.427 19.4101 33.4965 18.0215 34.5976 15.8265C36.3821 12.2689 34.9449 7.93856 31.3878 6.15428C28.1557 4.53304 24.2834 5.57174 22.2653 8.44471C21.9385 8.91003 21.2963 9.02229 20.831 8.69543Z" fill="#707070"/>
</svg>
