<svg width="40" height="40" viewBox="0 0 40 40" fill="none" xmlns="http://www.w3.org/2000/svg">
<path fill-rule="evenodd" clip-rule="evenodd" d="M35.9761 7.44986C36.5416 7.44986 37 7.90827 37 8.47376V17.1878C37 17.7533 36.5416 18.2117 35.9761 18.2117H27.2621C26.6966 18.2117 26.2382 17.7533 26.2382 17.1878C26.2382 16.6223 26.6966 16.1639 27.2621 16.1639H34.9522V8.47376C34.9522 7.90827 35.4106 7.44986 35.9761 7.44986Z" fill="#707070"/>
<path fill-rule="evenodd" clip-rule="evenodd" d="M3 22.9968C3 22.4313 3.45842 21.9729 4.0239 21.9729H12.7379C13.3034 21.9729 13.7618 22.4313 13.7618 22.9968C13.7618 23.5623 13.3034 24.0207 12.7379 24.0207H5.0478V31.7109C5.0478 32.2763 4.58939 32.7348 4.0239 32.7348C3.45842 32.7348 3 32.2763 3 31.7109V22.9968Z" fill="#707070"/>
<path fill-rule="evenodd" clip-rule="evenodd" d="M23.339 8.5222C21.3841 7.95674 19.3178 7.89572 17.333 8.34482C15.3481 8.79392 13.5093 9.73851 11.9883 11.0904C10.4672 12.4424 9.31341 14.1576 8.63452 16.0761C8.44588 16.6092 7.8608 16.8884 7.32771 16.6998C6.79462 16.5111 6.51539 15.926 6.70403 15.3929C7.49831 13.1484 8.84824 11.1416 10.6279 9.55984C12.4075 7.9781 14.5588 6.87295 16.881 6.34751C19.2033 5.82207 21.6208 5.89347 23.908 6.55504C26.19 7.2151 28.268 8.44118 29.9492 10.1193L36.6765 16.4407C37.0886 16.8279 37.1088 17.4759 36.7216 17.888C36.3343 18.3001 35.6863 18.3202 35.2743 17.933L28.5354 11.6008C28.5276 11.5935 28.5199 11.586 28.5123 11.5785C27.0737 10.1391 25.2939 9.08766 23.339 8.5222ZM3.27773 22.2951C3.66496 21.883 4.31295 21.8628 4.72505 22.25L11.4639 28.5822C11.4717 28.5896 11.4794 28.597 11.487 28.6046C12.9256 30.0439 14.7054 31.0954 16.6603 31.6609C18.6152 32.2263 20.6815 32.2873 22.6663 31.8382C24.6512 31.3891 26.49 30.4445 28.011 29.0926C29.5321 27.7407 30.6859 26.0254 31.3648 24.107C31.5534 23.5739 32.1385 23.2947 32.6716 23.4833C33.2047 23.6719 33.4839 24.257 33.2953 24.7901C32.501 27.0347 31.1511 29.0415 29.3714 30.6232C27.5918 32.205 25.4405 33.3101 23.1183 33.8355C20.796 34.361 18.3785 34.2896 16.0913 33.628C13.8093 32.968 11.7313 31.7419 10.0501 30.0638L3.32276 23.7424C2.91066 23.3551 2.8905 22.7072 3.27773 22.2951Z" fill="#707070"/>
</svg>
